<mxfile host="app.diagrams.net" modified="2024-02-17T11:39:40.069Z" agent="Mozilla/5.0 (Windows NT 10.0; Win64; x64) AppleWebKit/537.36 (KHTML, like Gecko) Chrome/120.0.0.0 YaBrowser/24.1.0.0 Safari/537.36" etag="MQcpHrkq0SI-qDCbTLM-" version="23.1.5" type="github">
  <diagram name="Страница — 1" id="Em4uxMiCycATdEwX-kmo">
    <mxGraphModel dx="1002" dy="575" grid="1" gridSize="10" guides="1" tooltips="1" connect="1" arrows="1" fold="1" page="1" pageScale="1" pageWidth="827" pageHeight="1169" math="0" shadow="0">
      <root>
        <mxCell id="0" />
        <mxCell id="1" parent="0" />
        <mxCell id="T-RasYC6Ty3uSP9wjbF7-1" value="терминатор&amp;nbsp;&lt;br&gt;начало, конец алгоритма" style="ellipse;whiteSpace=wrap;html=1;" vertex="1" parent="1">
          <mxGeometry x="180" y="40" width="120" height="80" as="geometry" />
        </mxCell>
        <mxCell id="T-RasYC6Ty3uSP9wjbF7-2" value="x:=0" style="rounded=0;whiteSpace=wrap;html=1;" vertex="1" parent="1">
          <mxGeometry x="180" y="150" width="120" height="60" as="geometry" />
        </mxCell>
        <mxCell id="T-RasYC6Ty3uSP9wjbF7-3" value="n:=5" style="rhombus;whiteSpace=wrap;html=1;" vertex="1" parent="1">
          <mxGeometry x="175" y="260" width="130" height="80" as="geometry" />
        </mxCell>
        <mxCell id="T-RasYC6Ty3uSP9wjbF7-4" value="- действие или серия действий&amp;nbsp;" style="text;html=1;align=center;verticalAlign=middle;resizable=0;points=[];autosize=1;strokeColor=none;fillColor=none;" vertex="1" parent="1">
          <mxGeometry x="300" y="165" width="200" height="30" as="geometry" />
        </mxCell>
        <mxCell id="T-RasYC6Ty3uSP9wjbF7-5" value="ветвление" style="text;html=1;align=center;verticalAlign=middle;resizable=0;points=[];autosize=1;strokeColor=none;fillColor=none;" vertex="1" parent="1">
          <mxGeometry x="320" y="285" width="80" height="30" as="geometry" />
        </mxCell>
        <mxCell id="T-RasYC6Ty3uSP9wjbF7-6" value="" style="shape=hexagon;perimeter=hexagonPerimeter2;whiteSpace=wrap;html=1;fixedSize=1;" vertex="1" parent="1">
          <mxGeometry x="185" y="370" width="120" height="80" as="geometry" />
        </mxCell>
        <mxCell id="T-RasYC6Ty3uSP9wjbF7-7" value="заголовок цикла" style="text;html=1;align=center;verticalAlign=middle;resizable=0;points=[];autosize=1;strokeColor=none;fillColor=none;" vertex="1" parent="1">
          <mxGeometry x="305" y="400" width="110" height="30" as="geometry" />
        </mxCell>
        <mxCell id="T-RasYC6Ty3uSP9wjbF7-8" value="" style="shape=parallelogram;perimeter=parallelogramPerimeter;whiteSpace=wrap;html=1;fixedSize=1;" vertex="1" parent="1">
          <mxGeometry x="190" y="500" width="120" height="60" as="geometry" />
        </mxCell>
        <mxCell id="T-RasYC6Ty3uSP9wjbF7-9" value="ввод/вывод данных" style="text;html=1;align=center;verticalAlign=middle;resizable=0;points=[];autosize=1;strokeColor=none;fillColor=none;" vertex="1" parent="1">
          <mxGeometry x="305" y="515" width="130" height="30" as="geometry" />
        </mxCell>
        <mxCell id="T-RasYC6Ty3uSP9wjbF7-10" value="начало алгоритма" style="ellipse;whiteSpace=wrap;html=1;" vertex="1" parent="1">
          <mxGeometry x="240" y="660" width="120" height="80" as="geometry" />
        </mxCell>
        <mxCell id="T-RasYC6Ty3uSP9wjbF7-11" value="" style="endArrow=classic;html=1;rounded=0;exitX=0.5;exitY=1;exitDx=0;exitDy=0;" edge="1" parent="1" source="T-RasYC6Ty3uSP9wjbF7-10">
          <mxGeometry width="50" height="50" relative="1" as="geometry">
            <mxPoint x="280" y="820" as="sourcePoint" />
            <mxPoint x="300" y="800" as="targetPoint" />
          </mxGeometry>
        </mxCell>
        <mxCell id="T-RasYC6Ty3uSP9wjbF7-12" value="сундук" style="rounded=0;whiteSpace=wrap;html=1;" vertex="1" parent="1">
          <mxGeometry x="240" y="800" width="120" height="60" as="geometry" />
        </mxCell>
        <mxCell id="T-RasYC6Ty3uSP9wjbF7-13" value="зайца" style="rounded=0;whiteSpace=wrap;html=1;" vertex="1" parent="1">
          <mxGeometry x="240" y="910" width="120" height="60" as="geometry" />
        </mxCell>
        <mxCell id="T-RasYC6Ty3uSP9wjbF7-14" value="утка" style="rounded=0;whiteSpace=wrap;html=1;" vertex="1" parent="1">
          <mxGeometry x="240" y="1040" width="120" height="60" as="geometry" />
        </mxCell>
        <mxCell id="T-RasYC6Ty3uSP9wjbF7-17" value="" style="endArrow=classic;html=1;rounded=0;exitX=0.5;exitY=1;exitDx=0;exitDy=0;entryX=0.5;entryY=0;entryDx=0;entryDy=0;" edge="1" parent="1" source="T-RasYC6Ty3uSP9wjbF7-12" target="T-RasYC6Ty3uSP9wjbF7-13">
          <mxGeometry width="50" height="50" relative="1" as="geometry">
            <mxPoint x="280" y="900" as="sourcePoint" />
            <mxPoint x="330" y="850" as="targetPoint" />
          </mxGeometry>
        </mxCell>
        <mxCell id="T-RasYC6Ty3uSP9wjbF7-18" value="" style="endArrow=classic;html=1;rounded=0;exitX=0.5;exitY=1;exitDx=0;exitDy=0;" edge="1" parent="1" source="T-RasYC6Ty3uSP9wjbF7-13" target="T-RasYC6Ty3uSP9wjbF7-14">
          <mxGeometry width="50" height="50" relative="1" as="geometry">
            <mxPoint x="290" y="1010" as="sourcePoint" />
            <mxPoint x="340" y="960" as="targetPoint" />
          </mxGeometry>
        </mxCell>
        <mxCell id="T-RasYC6Ty3uSP9wjbF7-19" value="" style="endArrow=classic;html=1;rounded=0;exitX=0.5;exitY=1;exitDx=0;exitDy=0;" edge="1" parent="1" source="T-RasYC6Ty3uSP9wjbF7-14">
          <mxGeometry width="50" height="50" relative="1" as="geometry">
            <mxPoint x="310" y="1170" as="sourcePoint" />
            <mxPoint x="300" y="1150" as="targetPoint" />
          </mxGeometry>
        </mxCell>
        <mxCell id="T-RasYC6Ty3uSP9wjbF7-20" value="яйцо" style="rounded=0;whiteSpace=wrap;html=1;" vertex="1" parent="1">
          <mxGeometry x="240" y="1160" width="120" height="60" as="geometry" />
        </mxCell>
        <mxCell id="T-RasYC6Ty3uSP9wjbF7-21" value="линейный алгоритм" style="text;html=1;align=center;verticalAlign=middle;resizable=0;points=[];autosize=1;strokeColor=none;fillColor=none;" vertex="1" parent="1">
          <mxGeometry x="435" y="920" width="130" height="30" as="geometry" />
        </mxCell>
        <mxCell id="T-RasYC6Ty3uSP9wjbF7-22" value="конец" style="ellipse;whiteSpace=wrap;html=1;" vertex="1" parent="1">
          <mxGeometry x="250" y="1280" width="120" height="80" as="geometry" />
        </mxCell>
        <mxCell id="T-RasYC6Ty3uSP9wjbF7-23" value="" style="endArrow=classic;html=1;rounded=0;exitX=0.5;exitY=1;exitDx=0;exitDy=0;entryX=0.417;entryY=0.045;entryDx=0;entryDy=0;entryPerimeter=0;" edge="1" parent="1" source="T-RasYC6Ty3uSP9wjbF7-20" target="T-RasYC6Ty3uSP9wjbF7-22">
          <mxGeometry width="50" height="50" relative="1" as="geometry">
            <mxPoint x="280" y="1280" as="sourcePoint" />
            <mxPoint x="290" y="1280" as="targetPoint" />
          </mxGeometry>
        </mxCell>
        <mxCell id="T-RasYC6Ty3uSP9wjbF7-24" value="&amp;lt;=&amp;gt;Д" style="ellipse;whiteSpace=wrap;html=1;" vertex="1" parent="1">
          <mxGeometry x="270" y="1560" width="120" height="80" as="geometry" />
        </mxCell>
        <mxCell id="T-RasYC6Ty3uSP9wjbF7-25" value="" style="endArrow=classic;html=1;rounded=0;exitX=0.5;exitY=1;exitDx=0;exitDy=0;" edge="1" parent="1" source="T-RasYC6Ty3uSP9wjbF7-24">
          <mxGeometry width="50" height="50" relative="1" as="geometry">
            <mxPoint x="330" y="1710" as="sourcePoint" />
            <mxPoint x="330" y="1680" as="targetPoint" />
          </mxGeometry>
        </mxCell>
        <mxCell id="T-RasYC6Ty3uSP9wjbF7-27" value="а,б, ц" style="shape=parallelogram;perimeter=parallelogramPerimeter;whiteSpace=wrap;html=1;fixedSize=1;" vertex="1" parent="1">
          <mxGeometry x="260" y="1680" width="120" height="60" as="geometry" />
        </mxCell>
        <mxCell id="T-RasYC6Ty3uSP9wjbF7-28" value="" style="endArrow=classic;html=1;rounded=0;exitX=0.5;exitY=1;exitDx=0;exitDy=0;" edge="1" parent="1" source="T-RasYC6Ty3uSP9wjbF7-27">
          <mxGeometry width="50" height="50" relative="1" as="geometry">
            <mxPoint x="310" y="1800" as="sourcePoint" />
            <mxPoint x="320" y="1800" as="targetPoint" />
          </mxGeometry>
        </mxCell>
        <mxCell id="T-RasYC6Ty3uSP9wjbF7-29" value="Д" style="rounded=0;whiteSpace=wrap;html=1;" vertex="1" parent="1">
          <mxGeometry x="260" y="1800" width="120" height="60" as="geometry" />
        </mxCell>
        <mxCell id="T-RasYC6Ty3uSP9wjbF7-30" value="" style="endArrow=classic;html=1;rounded=0;exitX=0;exitY=0.75;exitDx=0;exitDy=0;" edge="1" parent="1" source="T-RasYC6Ty3uSP9wjbF7-29" target="T-RasYC6Ty3uSP9wjbF7-31">
          <mxGeometry width="50" height="50" relative="1" as="geometry">
            <mxPoint x="150" y="1890" as="sourcePoint" />
            <mxPoint x="180" y="1880" as="targetPoint" />
          </mxGeometry>
        </mxCell>
        <mxCell id="T-RasYC6Ty3uSP9wjbF7-42" style="edgeStyle=orthogonalEdgeStyle;rounded=0;orthogonalLoop=1;jettySize=auto;html=1;" edge="1" parent="1" source="T-RasYC6Ty3uSP9wjbF7-31" target="T-RasYC6Ty3uSP9wjbF7-38">
          <mxGeometry relative="1" as="geometry" />
        </mxCell>
        <mxCell id="T-RasYC6Ty3uSP9wjbF7-31" value="&amp;gt;0" style="rhombus;whiteSpace=wrap;html=1;" vertex="1" parent="1">
          <mxGeometry x="130" y="1890" width="80" height="80" as="geometry" />
        </mxCell>
        <mxCell id="T-RasYC6Ty3uSP9wjbF7-33" value="" style="endArrow=classic;html=1;rounded=0;exitX=0.5;exitY=1;exitDx=0;exitDy=0;" edge="1" parent="1" source="T-RasYC6Ty3uSP9wjbF7-31">
          <mxGeometry width="50" height="50" relative="1" as="geometry">
            <mxPoint x="160" y="2010" as="sourcePoint" />
            <mxPoint x="150" y="2020" as="targetPoint" />
          </mxGeometry>
        </mxCell>
        <mxCell id="T-RasYC6Ty3uSP9wjbF7-36" style="edgeStyle=orthogonalEdgeStyle;rounded=0;orthogonalLoop=1;jettySize=auto;html=1;entryX=0.5;entryY=0;entryDx=0;entryDy=0;" edge="1" parent="1" source="T-RasYC6Ty3uSP9wjbF7-34" target="T-RasYC6Ty3uSP9wjbF7-35">
          <mxGeometry relative="1" as="geometry" />
        </mxCell>
        <mxCell id="T-RasYC6Ty3uSP9wjbF7-34" value="x1,x2" style="rounded=0;whiteSpace=wrap;html=1;" vertex="1" parent="1">
          <mxGeometry x="80" y="2030" width="120" height="60" as="geometry" />
        </mxCell>
        <mxCell id="T-RasYC6Ty3uSP9wjbF7-35" value="x1,x2" style="shape=parallelogram;perimeter=parallelogramPerimeter;whiteSpace=wrap;html=1;fixedSize=1;" vertex="1" parent="1">
          <mxGeometry x="80" y="2140" width="120" height="60" as="geometry" />
        </mxCell>
        <mxCell id="T-RasYC6Ty3uSP9wjbF7-44" style="edgeStyle=orthogonalEdgeStyle;rounded=0;orthogonalLoop=1;jettySize=auto;html=1;" edge="1" parent="1" source="T-RasYC6Ty3uSP9wjbF7-38">
          <mxGeometry relative="1" as="geometry">
            <mxPoint x="360" y="2120" as="targetPoint" />
          </mxGeometry>
        </mxCell>
        <mxCell id="T-RasYC6Ty3uSP9wjbF7-38" value="=0" style="rhombus;whiteSpace=wrap;html=1;" vertex="1" parent="1">
          <mxGeometry x="320" y="1970" width="80" height="80" as="geometry" />
        </mxCell>
        <mxCell id="T-RasYC6Ty3uSP9wjbF7-48" style="edgeStyle=orthogonalEdgeStyle;rounded=0;orthogonalLoop=1;jettySize=auto;html=1;entryX=1;entryY=0.75;entryDx=0;entryDy=0;" edge="1" parent="1" source="T-RasYC6Ty3uSP9wjbF7-40" target="T-RasYC6Ty3uSP9wjbF7-46">
          <mxGeometry relative="1" as="geometry">
            <mxPoint x="510" y="2300" as="targetPoint" />
            <Array as="points">
              <mxPoint x="560" y="2250" />
              <mxPoint x="541" y="2250" />
              <mxPoint x="541" y="2242" />
            </Array>
          </mxGeometry>
        </mxCell>
        <mxCell id="T-RasYC6Ty3uSP9wjbF7-40" value="нет" style="rhombus;whiteSpace=wrap;html=1;" vertex="1" parent="1">
          <mxGeometry x="520" y="1950" width="80" height="80" as="geometry" />
        </mxCell>
        <mxCell id="T-RasYC6Ty3uSP9wjbF7-43" style="edgeStyle=orthogonalEdgeStyle;rounded=0;orthogonalLoop=1;jettySize=auto;html=1;entryX=0.065;entryY=0.61;entryDx=0;entryDy=0;entryPerimeter=0;" edge="1" parent="1" source="T-RasYC6Ty3uSP9wjbF7-38" target="T-RasYC6Ty3uSP9wjbF7-40">
          <mxGeometry relative="1" as="geometry" />
        </mxCell>
        <mxCell id="T-RasYC6Ty3uSP9wjbF7-47" style="edgeStyle=orthogonalEdgeStyle;rounded=0;orthogonalLoop=1;jettySize=auto;html=1;entryX=0.5;entryY=0;entryDx=0;entryDy=0;" edge="1" parent="1" source="T-RasYC6Ty3uSP9wjbF7-45" target="T-RasYC6Ty3uSP9wjbF7-46">
          <mxGeometry relative="1" as="geometry" />
        </mxCell>
        <mxCell id="T-RasYC6Ty3uSP9wjbF7-45" value="x" style="rounded=0;whiteSpace=wrap;html=1;" vertex="1" parent="1">
          <mxGeometry x="300" y="2120" width="120" height="60" as="geometry" />
        </mxCell>
        <mxCell id="T-RasYC6Ty3uSP9wjbF7-46" value="x" style="shape=parallelogram;perimeter=parallelogramPerimeter;whiteSpace=wrap;html=1;fixedSize=1;" vertex="1" parent="1">
          <mxGeometry x="295" y="2200" width="120" height="60" as="geometry" />
        </mxCell>
        <mxCell id="T-RasYC6Ty3uSP9wjbF7-49" value="+" style="text;html=1;align=center;verticalAlign=middle;resizable=0;points=[];autosize=1;strokeColor=none;fillColor=none;" vertex="1" parent="1">
          <mxGeometry x="325" y="2058" width="30" height="30" as="geometry" />
        </mxCell>
        <mxCell id="T-RasYC6Ty3uSP9wjbF7-50" value="-" style="text;html=1;align=center;verticalAlign=middle;resizable=0;points=[];autosize=1;strokeColor=none;fillColor=none;" vertex="1" parent="1">
          <mxGeometry x="265" y="1928" width="30" height="30" as="geometry" />
        </mxCell>
        <mxCell id="T-RasYC6Ty3uSP9wjbF7-51" value="+" style="text;html=1;align=center;verticalAlign=middle;resizable=0;points=[];autosize=1;strokeColor=none;fillColor=none;" vertex="1" parent="1">
          <mxGeometry x="125" y="1968" width="30" height="30" as="geometry" />
        </mxCell>
        <mxCell id="T-RasYC6Ty3uSP9wjbF7-52" value="-" style="text;html=1;align=center;verticalAlign=middle;resizable=0;points=[];autosize=1;strokeColor=none;fillColor=none;" vertex="1" parent="1">
          <mxGeometry x="435" y="1978" width="30" height="30" as="geometry" />
        </mxCell>
        <mxCell id="T-RasYC6Ty3uSP9wjbF7-53" value="" style="endArrow=classic;html=1;rounded=0;exitX=0.65;exitY=1.02;exitDx=0;exitDy=0;exitPerimeter=0;" edge="1" parent="1" source="T-RasYC6Ty3uSP9wjbF7-35">
          <mxGeometry width="50" height="50" relative="1" as="geometry">
            <mxPoint x="140" y="2320" as="sourcePoint" />
            <mxPoint x="470" y="2250" as="targetPoint" />
            <Array as="points">
              <mxPoint x="160" y="2320" />
              <mxPoint x="480" y="2320" />
              <mxPoint x="480" y="2250" />
            </Array>
          </mxGeometry>
        </mxCell>
        <mxCell id="T-RasYC6Ty3uSP9wjbF7-54" value="" style="endArrow=classic;html=1;rounded=0;" edge="1" parent="1">
          <mxGeometry width="50" height="50" relative="1" as="geometry">
            <mxPoint x="330" y="2320" as="sourcePoint" />
            <mxPoint x="330" y="2360" as="targetPoint" />
          </mxGeometry>
        </mxCell>
        <mxCell id="T-RasYC6Ty3uSP9wjbF7-55" value="конец" style="ellipse;whiteSpace=wrap;html=1;" vertex="1" parent="1">
          <mxGeometry x="270" y="2360" width="120" height="80" as="geometry" />
        </mxCell>
        <mxCell id="T-RasYC6Ty3uSP9wjbF7-56" value="Ветвление" style="text;html=1;align=center;verticalAlign=middle;resizable=0;points=[];autosize=1;strokeColor=none;fillColor=none;" vertex="1" parent="1">
          <mxGeometry x="580" y="2078" width="80" height="30" as="geometry" />
        </mxCell>
        <mxCell id="T-RasYC6Ty3uSP9wjbF7-57" value="начало" style="ellipse;whiteSpace=wrap;html=1;" vertex="1" parent="1">
          <mxGeometry x="270" y="2530" width="120" height="80" as="geometry" />
        </mxCell>
        <mxCell id="T-RasYC6Ty3uSP9wjbF7-58" value="" style="endArrow=classic;html=1;rounded=0;exitX=0.5;exitY=1;exitDx=0;exitDy=0;" edge="1" parent="1" source="T-RasYC6Ty3uSP9wjbF7-57">
          <mxGeometry width="50" height="50" relative="1" as="geometry">
            <mxPoint x="300" y="2670" as="sourcePoint" />
            <mxPoint x="330" y="2660" as="targetPoint" />
          </mxGeometry>
        </mxCell>
        <mxCell id="T-RasYC6Ty3uSP9wjbF7-59" value="a=6" style="rounded=0;whiteSpace=wrap;html=1;" vertex="1" parent="1">
          <mxGeometry x="270" y="2660" width="120" height="60" as="geometry" />
        </mxCell>
        <mxCell id="T-RasYC6Ty3uSP9wjbF7-60" value="" style="endArrow=classic;html=1;rounded=0;exitX=0.5;exitY=1;exitDx=0;exitDy=0;" edge="1" parent="1" source="T-RasYC6Ty3uSP9wjbF7-59">
          <mxGeometry width="50" height="50" relative="1" as="geometry">
            <mxPoint x="310" y="2770" as="sourcePoint" />
            <mxPoint x="330" y="2780" as="targetPoint" />
          </mxGeometry>
        </mxCell>
        <mxCell id="T-RasYC6Ty3uSP9wjbF7-68" style="edgeStyle=orthogonalEdgeStyle;rounded=0;orthogonalLoop=1;jettySize=auto;html=1;" edge="1" parent="1" source="T-RasYC6Ty3uSP9wjbF7-61">
          <mxGeometry relative="1" as="geometry">
            <mxPoint x="490" y="2820" as="targetPoint" />
          </mxGeometry>
        </mxCell>
        <mxCell id="T-RasYC6Ty3uSP9wjbF7-61" value="a&amp;gt;0" style="rhombus;whiteSpace=wrap;html=1;" vertex="1" parent="1">
          <mxGeometry x="290" y="2780" width="80" height="80" as="geometry" />
        </mxCell>
        <mxCell id="T-RasYC6Ty3uSP9wjbF7-62" value="" style="endArrow=classic;html=1;rounded=0;exitX=0.5;exitY=1;exitDx=0;exitDy=0;" edge="1" parent="1" source="T-RasYC6Ty3uSP9wjbF7-61">
          <mxGeometry width="50" height="50" relative="1" as="geometry">
            <mxPoint x="300" y="2930" as="sourcePoint" />
            <mxPoint x="330" y="2920" as="targetPoint" />
          </mxGeometry>
        </mxCell>
        <mxCell id="T-RasYC6Ty3uSP9wjbF7-64" style="edgeStyle=orthogonalEdgeStyle;rounded=0;orthogonalLoop=1;jettySize=auto;html=1;" edge="1" parent="1" source="T-RasYC6Ty3uSP9wjbF7-63">
          <mxGeometry relative="1" as="geometry">
            <mxPoint x="325" y="3050" as="targetPoint" />
          </mxGeometry>
        </mxCell>
        <mxCell id="T-RasYC6Ty3uSP9wjbF7-63" value="a" style="shape=parallelogram;perimeter=parallelogramPerimeter;whiteSpace=wrap;html=1;fixedSize=1;" vertex="1" parent="1">
          <mxGeometry x="265" y="2923" width="120" height="60" as="geometry" />
        </mxCell>
        <mxCell id="T-RasYC6Ty3uSP9wjbF7-66" style="edgeStyle=orthogonalEdgeStyle;rounded=0;orthogonalLoop=1;jettySize=auto;html=1;" edge="1" parent="1" source="T-RasYC6Ty3uSP9wjbF7-65">
          <mxGeometry relative="1" as="geometry">
            <mxPoint x="330" y="2760" as="targetPoint" />
            <Array as="points">
              <mxPoint x="191" y="3080" />
            </Array>
          </mxGeometry>
        </mxCell>
        <mxCell id="T-RasYC6Ty3uSP9wjbF7-65" value="a-1" style="rounded=0;whiteSpace=wrap;html=1;" vertex="1" parent="1">
          <mxGeometry x="270" y="3050" width="120" height="60" as="geometry" />
        </mxCell>
        <mxCell id="T-RasYC6Ty3uSP9wjbF7-67" value="+" style="text;html=1;align=center;verticalAlign=middle;resizable=0;points=[];autosize=1;strokeColor=none;fillColor=none;" vertex="1" parent="1">
          <mxGeometry x="285" y="2878" width="30" height="30" as="geometry" />
        </mxCell>
        <mxCell id="T-RasYC6Ty3uSP9wjbF7-69" value="конец" style="ellipse;whiteSpace=wrap;html=1;" vertex="1" parent="1">
          <mxGeometry x="490" y="2780" width="120" height="80" as="geometry" />
        </mxCell>
        <mxCell id="T-RasYC6Ty3uSP9wjbF7-70" value="Цикл" style="text;html=1;align=center;verticalAlign=middle;resizable=0;points=[];autosize=1;strokeColor=none;fillColor=none;" vertex="1" parent="1">
          <mxGeometry x="535" y="2698" width="50" height="30" as="geometry" />
        </mxCell>
        <mxCell id="T-RasYC6Ty3uSP9wjbF7-71" value="-" style="text;html=1;align=center;verticalAlign=middle;resizable=0;points=[];autosize=1;strokeColor=none;fillColor=none;" vertex="1" parent="1">
          <mxGeometry x="395" y="2788" width="30" height="30" as="geometry" />
        </mxCell>
        <mxCell id="T-RasYC6Ty3uSP9wjbF7-72" value="" style="shape=process;whiteSpace=wrap;html=1;backgroundOutline=1;" vertex="1" parent="1">
          <mxGeometry x="210" y="580" width="120" height="60" as="geometry" />
        </mxCell>
        <mxCell id="T-RasYC6Ty3uSP9wjbF7-73" value="вспомогательный алгоритм" style="text;html=1;align=center;verticalAlign=middle;resizable=0;points=[];autosize=1;strokeColor=none;fillColor=none;" vertex="1" parent="1">
          <mxGeometry x="325" y="595" width="180" height="30" as="geometry" />
        </mxCell>
      </root>
    </mxGraphModel>
  </diagram>
</mxfile>
